<svg xmlns="http://www.w3.org/2000/svg" height="231.511" width="300" viewBox="0 0 300.00001 231.511">
    <style id="style6319">
        .st0{fill:#fff}.st1{fill:url(#SVGID_1_)}.st2{fill:url(#SVGID_2_)}.st3{fill:url(#SVGID_3_)}.st4{fill:url(#SVGID_4_)}.st5{fill:url(#SVGID_5_)}
    </style>
    <g transform="translate(-9.4 96.811)" id="g6321">
        <g transform="matrix(1.82152 0 0 1.82152 -8.544 -109.837)" id="g6323">
            <path id="path6325" d="M174 108.3c0 14-11.4 25.4-25.4 25.4H10.4V33.1c0-14 11.4-25.4 25.4-25.4H174v100.6z" class="st0" fill="#fff"/>
            <g id="g6327">
                <linearGradient gradientTransform="translate(-11.976 -13.861) scale(1.125)" y2="81.399" x2="157.33" y1="81.399" x1="117.386" gradientUnits="userSpaceOnUse" id="SVGID_1_">
                    <stop id="stop6330" offset="0" stop-color="#007940"/>
                    <stop id="stop6332" offset=".229" stop-color="#00873f"/>
                    <stop id="stop6334" offset=".743" stop-color="#40a737"/>
                    <stop id="stop6336" offset="1" stop-color="#5cb531"/>
                </linearGradient>
                <path id="path6338" d="M129 82.5h10.5c.3 0 1-.1 1.3-.1 2-.4 3.7-2.2 3.7-4.7 0-2.4-1.7-4.2-3.7-4.7-.3-.1-.9-.1-1.3-.1H129v9.6z" class="st1" fill="url(#SVGID_1_)"/>
                <linearGradient gradientTransform="translate(-11.976 -13.861) scale(1.125)" y2="75.171" x2="157.332" y1="75.171" x1="117.384" gradientUnits="userSpaceOnUse" id="SVGID_2_">
                    <stop id="stop6341" offset="0" stop-color="#007940"/>
                    <stop id="stop6343" offset=".229" stop-color="#00873f"/>
                    <stop id="stop6345" offset=".743" stop-color="#40a737"/>
                    <stop id="stop6347" offset="1" stop-color="#5cb531"/>
                </linearGradient>
                <path id="path6349" d="M138.3 16.2c-10 0-18.2 8.1-18.2 18.2v18.9h25.7c.6 0 1.3 0 1.8.1 5.8.3 10.1 3.3 10.1 8.5 0 4.1-2.9 7.6-8.3 8.3v.2c5.9.4 10.4 3.7 10.4 8.8 0 5.5-5 9.1-11.6 9.1H120v37h26.7c10 0 18.2-8.1 18.2-18.2V16.2h-26.6z" class="st2" fill="url(#SVGID_2_)"/>
                <linearGradient gradientTransform="translate(-11.976 -13.861) scale(1.125)" y2="68.399" x2="157.331" y1="68.399" x1="117.385" gradientUnits="userSpaceOnUse" id="SVGID_3_">
                    <stop id="stop6352" offset="0" stop-color="#007940"/>
                    <stop id="stop6354" offset=".229" stop-color="#00873f"/>
                    <stop id="stop6356" offset=".743" stop-color="#40a737"/>
                    <stop id="stop6358" offset="1" stop-color="#5cb531"/>
                </linearGradient>
                <path id="path6360" d="M143.2 63.1c0-2.4-1.7-4-3.7-4.3-.2 0-.7-.1-1-.1H129v8.8h9.5c.3 0 .9 0 1-.1 2-.3 3.7-1.9 3.7-4.3z" class="st3" fill="url(#SVGID_3_)"/>
            </g>
            <linearGradient gradientTransform="translate(-11.976 -13.861) scale(1.125)" y2="75.171" x2="68.522" y1="75.171" x1="27.959" gradientUnits="userSpaceOnUse" id="SVGID_4_">
                <stop id="stop6363" offset="0" stop-color="#1f286f"/>
                <stop id="stop6365" offset=".475" stop-color="#004e94"/>
                <stop id="stop6367" offset=".826" stop-color="#0066b1"/>
                <stop id="stop6369" offset="1" stop-color="#006fbc"/>
            </linearGradient>
            <path id="path6371" d="M37.7 16.2c-10 0-18.2 8.1-18.2 18.2v44.9c5.1 2.5 10.4 4.1 15.7 4.1 6.3 0 9.7-3.8 9.7-9V53.2h15.6v21.1c0 8.2-5.1 14.9-22.4 14.9-10.5 0-18.7-2.3-18.7-2.3v38.3h26.7c10 0 18.2-8.1 18.2-18.2V16.2H37.7z" class="st4" fill="url(#SVGID_4_)"/>
            <linearGradient gradientTransform="translate(-11.976 -13.861) scale(1.125)" y2="75.171" x2="111.855" y1="75.171" x1="72.46" gradientUnits="userSpaceOnUse" id="SVGID_5_">
                <stop id="stop6374" offset="0" stop-color="#6c2c2f"/>
                <stop id="stop6376" offset=".173" stop-color="#882730"/>
                <stop id="stop6378" offset=".573" stop-color="#be1833"/>
                <stop id="stop6380" offset=".859" stop-color="#dc0436"/>
                <stop id="stop6382" offset="1" stop-color="#e60039"/>
            </linearGradient>
            <path id="path6384" d="M88 16.2c-10 0-18.2 8.1-18.2 18.2v23.8c4.6-3.9 12.6-6.4 25.5-5.8 6.9.3 14.3 2.2 14.3 2.2v7.7c-3.7-1.9-8.1-3.6-13.8-4-9.8-.7-15.7 4.1-15.7 12.5 0 8.5 5.9 13.3 15.7 12.5 5.7-.4 10.1-2.2 13.8-4V87s-7.3 1.9-14.3 2.2c-12.9.6-20.9-1.9-25.5-5.8v42h26.7c10 0 18.2-8.1 18.2-18.2v-91H88z" class="st5" fill="url(#SVGID_5_)"/>
        </g>
    </g>
</svg>
